- 
http://www.Speed.Cd 
       
http://www.Speed.Cd       the fast  and The Hottest Private Tracker on the net

Please Seed back to make the speed Faster!!!

and don't forget to visit      ...... http://www.Speed.Cd..........
-                                                                                                     
       
     
     
       
       
     
     
                                         
                                         
                EXVID                    
                                         
         
                                         
         Filled the Archives             
                                         
         
                                         
                With:                    
                                         
         
                                         
                                    
     E240                           
                                    
     SP               (C) 2009      
                                         
     
     
     
                                                                                  
                                                                                   
                      Loft.2010.DVDRip.XviD-EXViD                                   
                                                                                   
                                                                                  
     
                                                                                               
EXViD aims to iNTERNAL those releases which have been lost in the archives.
EXViD aims to PRE non-internal releases which have poor sources and are likely skipped by others. 
http://www.imdb.com/title/tt1606789/
Subtitles: EN, NL HI
Date: 2011.05

Director: Antoinette Beumer

Genres:
Comedy | Thriller

Plot:
Five best friends, all married, decide to share a loft apartment. In this loft they meet their
mistresses and conquests. Everything seems perfect, until one morning the body of an unknown
young woman is found in the loft. The group of friends begin to suspect each other and it soon
becomes clear that they know far less about each other than they had initially thought.

Cast:
Credited cast:
Anna Drijver 	 ... 	 Ann Marai 
Kim van Kooten 	 ... 	 Nathalie 
Barry Atsma 	 ... 	 Matthias 
Jeroen van Koningsbrugge 	 ... 	 Willem 
Katja Herbers 	 ... 	 Marjolein 
Fedja van Hut 	 ... 	 Bart 
Charlie Dagelet 	 ... 	 Linda 
Hadewych Minis 	 ... 	 Eva 
Lies Visschedijk 	 ... 	 Annette 
Gijs Naber 	 ... 	 Tom 
Sallie Harmsen 	 ... 	 Sarah 
Jamie Grant 	 ... 	 Linda 
Chico Kenzari 	 ... 	 Tom 
Carolien Spoor 	 ... 	 Kimmy 
Sabine Soetanto

Stats:
Format                           : AVI
Format/Info                      : Audio Video Interleave
File size                        : 1.37 GiB
Duration                         : 1h 46mn
Overall bit rate                 : 1 840 Kbps
Writing application              : VirtualDubMod 1.5.10.2 (build 2540/release)
Writing library                  : VirtualDubMod build 2540/release

Video
ID                               : 0
Format                           : MPEG-4 Visual
Format profile                   : Advanced Simple@L5
Format settings, BVOP            : Yes
Format settings, QPel            : No
Format settings, GMC             : No warppoints
Format settings, Matrix          : Default (H.263)
Muxing mode                      : Packed bitstream
Codec ID                         : XVID
Codec ID/Hint                    : XviD
Duration                         : 1h 46mn
Bit rate                         : 1 382 Kbps
Width                            : 640 pixels
Height                           : 272 pixels
Display aspect ratio             : 2.35:1
Frame rate                       : 25.000 fps
Color space                      : YUV
Chroma subsampling               : 4:2:0
Bit depth                        : 8 bits
Scan type                        : Progressive
Bits/(Pixel*Frame)               : 0.318
Stream size                      : 1.03 GiB (75%)
Writing library                  : XviD 62

Audio
ID                               : 1
Format                           : AC-3
Format/Info                      : Audio Coding 3
Mode extension                   : CM (complete main)
Codec ID                         : 2000
Duration                         : 1h 46mn
Bit rate mode                    : Constant
Bit rate                         : 448 Kbps
Channel(s)                       : 6 channels
Channel positions                : Front: L C R, Side: L R, LFE
Sampling rate                    : 48.0 KHz
Bit depth                        : 16 bits
Stream size                      : 341 MiB (24%)
Alignment                        : Split accross interleaves
Interleave, duration             : 40 ms (1.00 video frame)
Interleave, preload duration     : 500 ms




Release notes:
Dutch remake of the flemish movie "Loft" we released some time earlier: http://www.imdb.com/title/tt0926762/

English .srt subs included to fit on disc.

enjoy!

Looking for:
75TB+ Archives
DUTCH/FLEMiSH Archives
                                                                                                    
Greets: CRBS EPiSODE FiCO FLS iLS KLASSiGER LiPSYNC MADE NODLABS RUNNER SPRiNTER      
   

                                                                    ASCII DONE BY XX^NFO 2oo9